# xmcd
#
# Track frame offsets: 
#        150
#        8865
#        32025
#        53195
#        68680
#        83085
#        118462
#        138562
#        161065
#        190170
#        207595
#        257847
#        273540
#
# Disc length: 3853 seconds
#
# Revision: 4
# Processed by: cddbd v1.5.2PL0 Copyright (c) Steve Scherf et al.
# Submitted via: ExactAudioCopy v0.99pb5
#
DISCID=c30f0b0d
DTITLE=BB King - Live at San Quentin
DYEAR=1990
DGENRE=Blues
TTITLE0=Introduction
TTITLE1=Let the Good Times Roll
TTITLE2=Every Day I Have the Blues
TTITLE3=Whole Lotta Loving
TTITLE4=Sweet Little Angel
TTITLE5=Never Make a Move Too Soon
TTITLE6=Into the Night
TTITLE7=Ain't Nobody's Business
TTITLE8=Thrill is Gone
TTITLE9=Peace to the World
TTITLE10=Nobody Loves Me But My Mother
TTITLE11=Sweet Sixteen
TTITLE12=Rock Me Baby
EXTD=
EXTT0=
EXTT1=
EXTT2=
EXTT3=
EXTT4=
EXTT5=
EXTT6=
EXTT7=
EXTT8=
EXTT9=
EXTT10=
EXTT11=
EXTT12=
PLAYORDER=
